# xmcd
#
# Track frame offsets:
# 150
# 9914
# 18633
# 27644
# 34712
# 49627
# 60205
# 76950
# 88207
# 96616
# 103989
# 112647
# 119550
# 128478
#
# Disc length: 1863 seconds
#
# Revision: 1
# Processed by: cddbd v1.5.2PL0 Copyright (c) Steve Scherf et al.
# Submitted via: Easy CD Ripper v2.35
#
DISCID=ad07450e
DTITLE=The Homestead Pickers - Outta Dough
DYEAR=2006
DGENRE=Country
TTITLE0=Washington County - The Homestead Pickers
TTITLE1=Ain't Gonna Rain No More - The Homestead Pickers
TTITLE2=Grey Cat on a Tennesse Farm - The Homestead Pickers
TTITLE3=Ole Blue - The Homestead Pickers
TTITLE4=Wabash Cannonball - The Homestead Pickers
TTITLE5=Whiskey Before Breakfast - The Homestead Pickers
TTITLE6=Beulahland - The Homestead Pickers
TTITLE7=Ghost Chickens in the Sky - The Homestead Pickers
TTITLE8=The Cod Fish Ball - The Homestead Pickers
TTITLE9=My Missouri Mule - The Homestead Pickers
TTITLE10=The Barnyard Dance - The Homestead Pickers
TTITLE11=Four Wet Pigs - The Homestead Pickers
TTITLE12=Good News - The Homestead Pickers
TTITLE13=Tennesse Waltz - The Homestead Pickers
EXTD=
EXTT0=
EXTT1=
EXTT2=
EXTT3=
EXTT4=
EXTT5=
EXTT6=
EXTT7=
EXTT8=
EXTT9=
EXTT10=
EXTT11=
EXTT12=
EXTT13=
PLAYORDER=
